<?xml version="1.0" encoding="UTF-8" standalone="no"?>
<!-- Created with Inkscape (http://www.inkscape.org/) -->

<svg
   version="1.1"
   id="svg1"
   width="835.9541"
   height="841.27448"
   viewBox="0 0 835.9541 841.27448"
   xmlns="http://www.w3.org/2000/svg"
   xmlns:svg="http://www.w3.org/2000/svg">
  <defs
     id="defs1" />
  <g
     id="g1"
     transform="translate(-102.50666,-71.873502)">
    <path
       style="fill:#ff0000"
       d="M 491.47573,912.62009 C 454.95506,909.43868 424.24552,903.47454 393.5294,893.59781 266.79405,852.84619 166.90384,754.647 123.92495,628.55742 c -9.07524,-26.62453 -14.84223,-51.74304 -19.2028,-83.63912 -1.95088,-14.27002 -2.20431,-20.51829 -2.21513,-54.61355 -0.011,-34.59141 0.21952,-40.19401 2.27041,-55.18614 11.25005,-82.23817 41.03571,-151.02179 93.02178,-214.81387 12.05489,-14.79256 44.35073,-46.76404 59.17652,-58.5822 63.53743,-50.64793 134.76557,-79.332007 220,-88.595557 17.57614,-1.91023 69.81708,-1.5735 89.5,0.57689 86.01228,9.39699 160.08487,40.594267 224.99381,94.760997 72.5885,60.57536 124.15981,149.83606 140.88101,243.83988 5.2189,29.33966 6.1069,40.82109 6.1102,79 0,37.97114 -0.7859,47.93328 -6.1,77 -20.9707,114.70493 -87.18677,214.05549 -185.45773,278.2606 -68.50812,44.75963 -145.17388,67.16038 -227.8379,66.5713 -12.97417,-0.0925 -25.38939,-0.32491 -27.58939,-0.51656 z m 69,-25.88197 c 46.92524,-4.55683 90.20934,-17.22584 134.10204,-39.2509 47.02639,-23.59753 86.60455,-54.19655 121.81987,-94.18247 52.28671,-59.36997 85.46671,-133.90157 95.26861,-214 2.7776,-22.69836 2.535,-77.82189 -0.4385,-99.60112 -13.5267,-99.0776 -58.55008,-183.71488 -132.00837,-248.15603 l -8.25634,-7.24286 H 666.96938 562.97573 v 22 22 h -46 -46 v -22 -22 l -48.25,0.0119 c -37.6735,0.009 -49.37885,0.31244 -53.39981,1.38306 -21.74039,5.7886 -35.28105,27.7128 -29.9552,48.50163 3.38825,13.22564 10.36983,21.75674 22.4254,27.40258 6.42965,3.01112 7.30373,3.14825 23.35765,3.66452 18.77529,0.60378 20.62542,1.24966 24.20098,8.44855 1.59915,3.21965 1.70817,4.35341 0.73194,7.61177 -1.38501,4.62275 -5.90211,8.65861 -10.69808,9.55834 -1.94053,0.36405 -10.13979,0.44362 -18.22056,0.17684 -12.30345,-0.4062 -16.01429,-0.91477 -22.82284,-3.12788 -30.41044,-9.88484 -49.77595,-40.77609 -45.49653,-72.57463 2.83758,-21.08486 16.84138,-40.31168 36.31577,-49.86048 15.63374,-7.66563 14.25391,-7.51156 71.06128,-7.9348 l 50.75,-0.37814 v -2.47375 c 0,-6.45607 6.8841,-14.73999 13.22862,-15.91854 1.79926,-0.33423 17.93227,-0.46892 35.85112,-0.29932 l 32.57975,0.30836 3.52953,2.69355 c 4.05943,3.09794 6.81098,8.23164 6.81098,12.70757 v 3.09887 h 84.5 c 46.475,0 84.5,-0.18363 84.5,-0.40806 0,-1.90777 -42.66761,-24.02899 -60.38899,-31.30896 C 569.87607,83.804843 450.43918,86.620363 349.92483,133.17036 237.06501,185.43775 155.72312,292.14753 132.57482,418.30475 c -4.76949,25.99353 -6.00994,41.19743 -5.99666,73.5 0.0159,38.74052 2.92269,63.41807 11.50158,97.64502 30.72238,122.57213 118.08152,222.65835 236.39328,270.83268 58.81173,23.94702 120.89867,32.77782 186.00271,26.45567 z M 269.59595,792.49927 c -0.2738,-0.44302 -0.41286,-16.75552 -0.30902,-36.25 l 0.1888,-35.44452 23.25,-0.26843 23.25,-0.26843 v 7.51843 7.51843 h -15 -15 v 8 8 h 13 13 v 7.5 7.5 h -13 -13 v 13.5 13.5 h -7.94098 c -4.36754,0 -8.165,-0.36247 -8.4388,-0.80548 z m 51.37978,0.0124 c 0,-0.82356 21.66831,-61.34858 24.86598,-69.45691 1.07617,-2.72883 1.1571,-2.75 10.51144,-2.75 9.38366,0 9.43135,0.0126 10.39051,2.75 0.52997,1.5125 6.42399,17.64779 13.09782,35.8562 6.67384,18.2084 12.13425,33.3959 12.13425,33.75 0,0.35409 -3.9375,0.64284 -8.75,0.64168 l -8.75,-0.002 -2.5541,-7.24787 -2.55409,-7.24788 -13.12501,-0.21268 -13.12502,-0.21267 -2.40405,7.21267 -2.40406,7.21268 -8.66683,0.33868 c -5.16795,0.20182 -8.66684,-0.0532 -8.66684,-0.6319 z m 43.78019,-28.45691 c -0.23858,-0.6875 -2.19923,-6.75116 -4.35699,-13.47479 -2.15776,-6.72364 -4.1482,-12.22758 -4.4232,-12.23098 -0.275,-0.003 -2.24778,5.49775 -4.38395,12.22479 -2.13618,6.72704 -4.08618,12.79348 -4.33334,13.48098 -0.33862,0.94192 1.81569,1.25 8.74095,1.25 6.91694,0 9.08301,-0.30921 8.75653,-1.25 z m 57.01703,27.51226 c -11.10412,-4.16102 -18.46127,-12.05345 -21.95345,-23.55071 -5.39586,-17.76469 2.48048,-36.82287 18.4716,-44.69527 15.12608,-7.44655 35.3875,-3.9771 45.79004,7.84081 2.14202,2.43347 3.89459,4.71246 3.89459,5.06441 0,0.67624 -15.10139,8.39183 -15.41963,7.87819 -2.94501,-4.75317 -4.25479,-6.1031 -7.55516,-7.78683 -7.29765,-3.72298 -18.26927,-1.81841 -23.72748,4.11887 -5.73762,6.24121 -7.41376,18.82821 -3.51667,26.40847 2.44368,4.75323 6.68972,8.9437 10.53404,10.39618 7.46569,2.82074 18.07758,0.19375 22.63818,-5.60411 l 2.14233,-2.72353 7.50686,3.71449 7.50686,3.71449 -2.03954,2.86427 c -3.1215,4.38374 -8.97645,9.16417 -14.01898,11.44616 -6.42214,2.90633 -23.55566,3.42402 -30.25359,0.91411 z m 77.20278,-27.15527 v -29.10699 h -10 -10 v -7.5 -7.5 h 28 28 v 7.5 7.5 h -9.5 -9.5 v 28.5 28.5 h -6.91821 c -3.80502,0 -7.63002,0.27314 -8.5,0.60699 -1.42006,0.54493 -1.58179,-2.36908 -1.58179,-28.5 z m 69.9688,27.41102 c -20.90546,-6.69411 -31.11274,-31.56709 -21.20912,-51.68211 3.86431,-7.84871 9.22871,-13.00115 17.61694,-16.92086 15.8017,-7.38394 34.49012,-3.6428 46.05433,9.21939 6.08314,6.76591 8.74989,14.19193 8.74989,24.36557 0,10.95752 -2.67732,17.87056 -9.71124,25.07514 -7.90411,8.09588 -14.41663,10.78168 -26.9696,11.12238 -6.67871,0.18127 -11.50494,-0.21048 -14.5312,-1.17951 z m 24.23076,-16.45258 c 10.38147,-7.1135 12.81009,-23.29886 4.95451,-33.01902 -9.50374,-11.75952 -27.47212,-10.14411 -34.21661,3.07618 -5.95052,11.66399 -1.85256,25.06708 9.56254,31.27593 4.55213,2.47597 15.19132,1.75601 19.69956,-1.33309 z m 73.18543,5.23292 c -7.73284,-12.30226 -8.18694,-12.81039 -11.71483,-13.10873 l -3.67016,-0.31036 v 12.56036 12.56037 l -8.25,10e-6 -8.25,10e-6 0.22262,-35.75001 0.22262,-35.75001 11.21413,-0.2845 c 21.65714,-0.54943 32.78767,1.85784 39.03758,8.44292 9.22488,9.71959 7.04563,26.54359 -4.35636,33.63146 -2.66233,1.65499 -4.84059,3.12115 -4.84059,3.25814 0,0.13698 4.05,6.19038 9,13.45198 4.95,7.2616 9,13.30576 9,13.43146 0,0.12571 -4.40333,0.32681 -9.78517,0.44689 l -9.78517,0.21834 z m 2.58478,-27.57755 c 6.19433,-3.13437 6.61072,-12.1766 0.72597,-15.76476 -2.4399,-1.4877 -5.02873,-1.94945 -10.94574,-1.9523 l -7.75,-0.004 v 9.5 9.5 l 7.75,-0.0147 c 4.2625,-0.008 8.8614,-0.57712 10.21977,-1.26446 z m 54.03023,26.2798 c 0,-16.1937 1.23791,-12.69938 -13.93706,-39.34089 -5.53461,-9.71669 -10.06294,-17.89014 -10.06294,-18.16322 0,-0.27307 4.1625,-0.49622 9.25,-0.49588 l 9.25,6.1e-4 6.86343,13.55262 c 3.77489,7.45395 7.12642,13.28965 7.44784,12.96822 0.32142,-0.32142 3.60468,-6.30787 7.29614,-13.30323 l 6.71173,-12.71883 9.09043,-0.28753 c 4.99974,-0.15814 9.09043,-0.019 9.09043,0.30919 0,0.32819 -5.2875,9.68257 -11.75,20.78752 l -11.75,20.19082 -0.5,15 -0.5,15 -8.25,0.29044 -8.25,0.29044 z m -273.5,-81.62644 c -1.1,-0.21662 -4.475,-0.87512 -7.5,-1.46335 -3.025,-0.58822 -9.74463,-3.10878 -14.93251,-5.60124 -17.26632,-8.2954 -30.78685,-24.93853 -35.55755,-43.76967 -1.77369,-7.00119 -2.00783,-25.00798 -0.42572,-32.74068 0.59632,-2.91457 3.12131,-9.54385 5.61108,-14.73173 3.76589,-7.84688 5.89505,-10.79283 12.66578,-17.52463 14.12127,-14.04006 28.80095,-19.85246 50.13892,-19.85246 13.44816,0 23.20468,2.11254 33.30583,7.21158 17.80064,8.98574 31.29933,25.7151 35.65325,44.18622 2.17756,9.23808 1.9811,24.8708 -0.43108,34.30232 -6.40782,25.05432 -27.19748,44.10297 -53.65972,49.16603 -6.9428,1.32838 -20.08096,1.76033 -24.86828,0.81761 z m 27.66953,-33.13384 c 27.48194,-13.54183 27.51508,-55.93999 0.0543,-69.44832 -6.34151,-3.11947 -7.26955,-3.29181 -17.70803,-3.28846 -10.11024,0.003 -11.45032,0.23219 -16.30169,2.78504 -7.42156,3.90531 -12.41637,8.7333 -15.97663,15.44308 -9.67795,18.23937 -4.77118,41.23686 11.13303,52.17924 6.98545,4.80612 12.05466,6.112 22.65665,5.83659 8.46051,-0.21978 10.26777,-0.61244 16.14238,-3.50717 z M 267.97573,630.30475 v -66 l 32.25,0.0174 c 23.53787,0.0127 34.00684,0.38984 38.75337,1.39617 26.04454,5.52181 41.05976,27.19355 35.88069,51.78725 -2.53314,12.02905 -9.46009,21.22555 -19.97094,26.51423 l -5.58687,2.81111 15.83687,24.25491 c 8.71029,13.34016 15.83688,24.48193 15.83688,24.75946 0,0.27752 -8.18372,0.38194 -18.18604,0.23203 l -18.18604,-0.27256 -12.92907,-22.25 -12.92908,-22.25 h -8.88488 -8.88489 v 22.5 22.5 h -16.5 -16.5 z m 62.60889,-6.47649 c 13.16597,-3.90988 16.58919,-18.28893 6.39597,-26.86596 -4.45129,-3.74552 -8.95129,-4.64572 -23.25486,-4.65197 l -12.75,-0.006 v 16.5 16.5 h 12.3185 c 7.95103,0 14.08126,-0.52348 17.29039,-1.47649 z m 217.15523,6.55797 0.26413,-66.08148 35.73587,0.0119 c 37.70929,0.0125 41.14581,0.34566 50.55552,4.90082 7.14123,3.45701 12.33293,8.63615 15.88031,15.84191 2.87508,5.84011 3.27295,7.6091 3.19561,14.20802 -0.0649,5.53826 -0.66558,8.74791 -2.26471,12.1015 -2.35363,4.93589 -8.96012,11.96232 -13.38718,14.23814 l -2.75634,1.41695 6.47074,3.18553 c 11.1641,5.49604 16.54193,14.79244 16.54193,28.59523 0,17.55631 -10.11792,29.52704 -29.7332,35.17803 -4.78032,1.37716 -12.18164,1.7318 -43.2668,2.07314 l -37.5,0.41179 z m 69.96527,37.10309 c 9.98039,-5.20139 9.94267,-18.53475 -0.0677,-23.92793 -2.53431,-1.36538 -6.58469,-1.77792 -20.4117,-2.07897 l -17.24999,-0.37557 v 14.71434 14.71435 l 16.75,-0.42101 c 14.83228,-0.37281 17.23423,-0.67337 20.97939,-2.62521 z m -3.72939,-53.72058 c 6.66965,-3.87225 8.91278,-13.53854 4.33475,-18.67962 -3.54414,-3.98003 -7.46173,-4.78437 -23.30263,-4.78437 h -15.03212 v 13.10685 13.10685 l 15.25,-0.35884 c 13.10444,-0.30836 15.74242,-0.64474 18.75,-2.39087 z m 92,58.4319 V 648.09652 L 683.59155,609.95064 C 671.28025,588.9704 660.2108,570.11725 658.99277,568.05475 l -2.21459,-3.75 18.84877,0.003 18.84878,0.003 13,25.09805 c 7.15,13.80393 13.51504,25.82469 14.14454,26.71281 0.94653,1.3354 3.45358,-3.00724 14.49123,-25.10125 l 13.34668,-26.71561 h 18.25878 c 10.04232,0 18.25877,0.24083 18.25877,0.53518 0,0.29435 -0.64403,1.53185 -1.43118,2.75 -0.78714,1.21815 -11.58714,19.94111 -24,41.60658 l -22.56882,39.39175 v 23.85825 23.85824 h -16 -16 z M 221.00975,533.5532 c -4.71592,-2.37899 -7.42939,-7.35926 -7.33726,-13.4667 0.0856,-5.67442 -4.23145,1.12592 44.61687,-70.28175 18.43586,-26.95 35.46974,-51.0368 37.85306,-53.52622 2.69978,-2.81998 5.88492,-4.98755 8.44933,-5.75 3.10334,-0.92269 24.79743,-1.22378 88.17511,-1.22378 h 84.05908 l 4.53912,7.47654 4.53912,7.47654 -17.21423,0.27346 -17.21422,0.27346 -2.1705,9.5 c -1.19378,5.225 -2.20628,10.51882 -2.25,11.76405 l -0.0795,2.26404 31.73662,-0.26404 c 29.16003,-0.24261 31.76362,-0.40441 32.06926,-1.99296 0.53942,-2.80363 -11.37546,-26.36222 -27.65216,-54.67496 -8.34862,-14.52213 -15.01923,-26.56395 -14.82358,-26.75961 0.19566,-0.19565 22.19454,-0.23891 48.8864,-0.0961 l 48.53067,0.25961 -15.42435,27 c -18.29225,32.02021 -28.64803,52.48904 -27.74557,54.84082 0.5746,1.49739 3.73423,1.65918 32.40239,1.65918 h 31.7657 l -1.91132,-8.25 c -1.05123,-4.5375 -2.36128,-9.9375 -2.91123,-12 l -0.99992,-3.75003 h -16.54479 c -9.09963,0 -16.39479,-0.36412 -16.21145,-0.80915 0.18333,-0.44503 2.11433,-3.82003 4.29111,-7.5 l 3.95777,-6.69085 h 81.42621 c 58.11848,0 82.51672,0.32673 85.23596,1.14143 2.09536,0.62779 5.39178,2.44547 7.32536,4.0393 1.95938,1.61508 18.89547,25.56703 38.25942,54.10857 19.10909,28.16588 37.01488,54.52757 39.79065,58.58153 4.63658,6.77165 5.04685,7.8428 5.04685,13.17667 0,6.73248 -2.11389,10.41826 -7.57108,13.20095 -3.24106,1.65265 -19.26276,1.74844 -292.42892,1.74844 -273.15203,0 -289.19007,-0.0959 -292.46598,-1.74844 z m 87.37754,-15.49845 c 2.3577,-3.63926 15.94779,-32.72423 15.49894,-33.17022 -0.22577,-0.22434 -15.91195,-0.5332 -34.85818,-0.68636 l -34.44768,-0.27846 -11.80232,17.21499 c -6.49127,9.46824 -11.80232,17.65488 -11.80232,18.19252 0,0.61955 13.90762,0.97753 37.97695,0.97753 h 37.97694 z m 105.69533,-14.25 c 2.09435,-8.8 3.82708,-16.7875 3.85051,-17.75 0.0399,-1.63746 -2.46363,-1.75 -38.92896,-1.75 H 340.0326 l -8.52843,17.64383 c -4.69064,9.70411 -8.52844,17.80884 -8.52844,18.01051 0,0.20168 19.64227,0.24945 43.64949,0.10617 l 43.64949,-0.26051 z m 94.89311,-1.5 v -18 h -37.80272 -37.80273 l -3.69727,16.76434 c -2.03351,9.22038 -3.69728,17.32038 -3.69728,18 0,0.96103 9.22346,1.23566 41.5,1.23566 h 41.5 z m 99.6364,15.75 c -0.32828,-1.2375 -2.29326,-9.34173 -4.36663,-18.0094 l -3.76977,-15.7594 -38.5,0.2594 -38.5,0.2594 -0.27579,16.46161 c -0.15168,9.05389 -0.0533,17.04139 0.21862,17.75 0.39268,1.02332 9.26878,1.28839 43.14242,1.28839 h 42.64801 z m 98.3636,1.51144 c 0,-0.40621 -3.7125,-8.49668 -8.25,-17.97883 l -8.25,-17.24026 -37.81739,-0.0212 c -35.55908,-0.0199 -37.78546,0.0833 -37.28276,1.72882 0.29404,0.9625 2.13041,8.5 4.08082,16.75 1.95041,8.25 3.75103,15.5625 4.00138,16.25 0.35418,0.97263 9.67089,1.25 41.98657,1.25 22.84226,3e-5 41.53138,-0.33232 41.53138,-0.73853 z m 88.55831,-0.35578 c 0.52851,-0.85516 -8.13352,-14.52106 -21.67468,-34.19571 -0.60237,-0.87521 -65.86788,-1.05904 -66.73894,-0.18797 -0.41243,0.41242 8.41614,20.47276 13.52343,30.72802 l 2.36557,4.75 h 35.92414 c 24.93536,0 36.13102,-0.33475 36.60048,-1.09434 z M 338.40306,457.16209 c 5.17942,-10.88576 6.42588,-14.33002 5.4126,-14.95627 -0.72404,-0.44748 -14.4891,-0.78063 -30.58902,-0.74034 l -29.27258,0.0733 -9.48917,13.833 c -5.21904,7.60812 -9.48916,14.30547 -9.48916,14.88297 0,0.71234 10.72437,1.05 33.34914,1.05 H 331.674 Z m 83.49502,10.39266 c 0.54969,-2.0625 1.91793,-7.8 3.04054,-12.75 1.1226,-4.95 2.27377,-10.0125 2.55816,-11.25 l 0.51705,-2.25 -31.26905,0.0136 c -17.19798,0.008 -32.16905,0.25743 -33.26905,0.55536 -1.3438,0.36398 -4.2967,4.97633 -9,14.0578 -3.85,7.43385 -7.15,13.93393 -7.33333,14.44464 -0.20128,0.56074 14.34256,0.9286 36.71145,0.9286 h 37.04479 z m 87.07765,-11.26348 v -15.01348 l -33.17932,0.26348 -33.17933,0.26348 -2.64945,12 c -1.4572,6.6 -2.96007,13.2375 -3.33973,14.75 l -0.69027,2.75 h 36.51905 36.51905 z m 88,13.9447 c 0,-0.93554 -3.17633,-14.06098 -6.09705,-25.19465 l -0.98727,-3.76343 -33.20784,0.26343 -33.20784,0.26343 -0.21876,13.5 c -0.12032,7.425 -0.022,14.0625 0.21861,14.75 0.58173,1.66254 73.50015,1.84232 73.50015,0.18122 z m 86,0.0555 c 0,-0.55733 -3.153,-7.30733 -7.00668,-15 l -7.00667,-13.98672 h -31.99333 c -22.0348,0 -31.99332,0.33268 -31.99332,1.06878 0,0.93492 3.17362,14.04996 6.09343,25.18122 l 0.98366,3.75 h 35.46145 c 23.28526,0 35.46146,-0.34794 35.46146,-1.01333 z m 79.90233,-0.58942 c 0.22128,-0.20272 -3.78049,-6.67503 -8.89282,-14.38291 l -9.29515,-14.01439 h -29.79918 -29.79919 l 4.29367,9.25 c 5.38959,11.61098 8.56028,17.9098 9.78817,19.44502 0.72198,0.90268 8.58179,1.05751 32.12899,0.63291 17.14525,-0.30916 31.35423,-0.72796 31.57551,-0.93068 z M 358.24585,416.79373 c 3.15143,-6.33106 5.72988,-11.73106 5.72988,-12 0,-0.79612 -53.39773,-0.52593 -54.6118,0.27633 -1.41113,0.93249 -15.3882,21.27707 -15.3882,22.39858 0,0.45986 13.17155,0.83611 29.27012,0.83611 h 29.27012 z m 75.7929,-0.4906 2.56301,-11.99838 h -28.81301 c -15.84716,0 -28.81302,0.16875 -28.81302,0.37501 0,0.20625 -2.45802,5.60625 -5.46227,12 l -5.46226,11.62499 31.71226,-0.002 31.71227,-0.002 z m 227.93698,11.27109 c 0,-0.40179 -2.3625,-5.78403 -5.25,-11.96053 l -5.25,-11.23001 -28.04901,-0.0395 -28.04901,-0.0395 3.04284,12 3.04283,12 h 30.25618 c 16.64089,7e-5 30.25617,-0.32867 30.25617,-0.73046 z m 73,0.18537 c 0,-0.74392 -9.63047,-15.07355 -13.24298,-19.70484 l -2.92508,-3.75 H 692.8917 c -14.25378,0 -25.91597,0.20878 -25.91597,0.46397 0,0.25518 2.45785,5.65518 5.46189,12 l 5.46189,11.53603 h 28.53811 c 15.69596,0 28.53811,-0.24532 28.53811,-0.54516 z m -304.6,-101.85485 -3.4,-3.4 v -35.64966 c 0,-38.67074 0.16359,-39.93695 5.47206,-42.35565 1.96524,-0.89543 23.30101,-1.19469 85.17499,-1.19469 h 82.55295 l 3.4,3.4 3.4,3.4 v 36.2 36.2 l -3.4,3.4 -3.4,3.4 h -83.2 -83.2 z"
       id="path1" />
  </g>
</svg>
